<svg width="21" height="23" viewBox="0 0 21 23" fill="none" xmlns="http://www.w3.org/2000/svg">
<path d="M18.7325 16.9275L18.9695 15.9045M18.7325 16.9275C18.8949 16.9637 19.0483 17.0327 19.1832 17.1302C19.3181 17.2277 19.4317 17.3517 19.517 17.4945C19.5785 17.6085 19.5935 17.7 19.5905 17.7615C19.5842 17.841 19.5515 17.916 19.4975 17.9745C18.4492 19.2643 17.1058 20.2826 15.5808 20.9435C14.0558 21.6043 12.3941 21.8883 10.7362 21.7713C9.07832 21.6543 7.47296 21.1398 6.05588 20.2714C4.6388 19.403 3.45167 18.2061 2.59485 16.7819C1.73804 15.3578 1.23674 13.7483 1.13334 12.0895C1.02993 10.4307 1.32747 8.77136 2.00079 7.25184C2.67411 5.73232 3.70341 4.39726 5.00167 3.35955C6.29993 2.32185 7.82897 1.612 9.4595 1.29004C9.48811 1.33103 9.50725 1.37785 9.51555 1.42714C9.52385 1.47643 9.5211 1.52694 9.5075 1.57504C9.07498 3.18956 8.97199 4.87464 9.20467 6.52982C9.43734 8.18499 10.0009 9.77637 10.8618 11.2091C11.7227 12.6418 12.8632 13.8865 14.2155 14.8689C15.5677 15.8514 17.1039 16.5515 18.7325 16.9275Z" stroke="#6a66ca" stroke-width="2.1"/>
</svg>
