<svg width="24" height="25" viewBox="0 0 24 25" fill="#6a66ca" xmlns="http://www.w3.org/2000/svg">
<path d="M12.0001 1.82471C12.2388 1.82471 12.4677 1.91953 12.6365 2.08831C12.8053 2.25709 12.9001 2.48601 12.9001 2.72471V5.43071C12.9001 5.90621 12.4756 6.26771 12.0001 6.26771C11.5246 6.26771 11.1001 5.90771 11.1001 5.43071V2.72471C11.1001 2.48601 11.1949 2.25709 11.3637 2.08831C11.5325 1.91953 11.7614 1.82471 12.0001 1.82471ZM8.10758 8.03771C8.44808 7.70771 8.50358 7.15721 8.17658 6.81521L6.75008 5.32421C6.5812 5.15533 6.35216 5.06046 6.11333 5.06046C5.8745 5.06046 5.64545 5.15533 5.47658 5.32421C5.3077 5.49308 5.21283 5.72213 5.21283 5.96096C5.21283 6.19978 5.3077 6.42883 5.47658 6.59771L6.87608 8.05871C7.20608 8.40371 7.76408 8.36921 8.10758 8.03771ZM6.08108 12.0742C6.08108 11.5987 5.72108 11.1742 5.24558 11.1742H2.73008C2.49138 11.1742 2.26246 11.269 2.09368 11.4378C1.9249 11.6066 1.83008 11.8355 1.83008 12.0742C1.83008 12.3129 1.9249 12.5418 2.09368 12.7106C2.26246 12.8794 2.49138 12.9742 2.73008 12.9742H5.24558C5.72108 12.9742 6.08108 12.5497 6.08108 12.0742ZM7.81508 16.1122C7.48508 15.7732 6.93608 15.7162 6.59408 16.0432L5.25008 17.3242C5.16165 17.4066 5.09073 17.506 5.04154 17.6164C4.99235 17.7268 4.9659 17.8459 4.96377 17.9668C4.96164 18.0876 4.98387 18.2077 5.02913 18.3197C5.0744 18.4318 5.14177 18.5336 5.22723 18.6191C5.31269 18.7045 5.4145 18.7719 5.52656 18.8172C5.63863 18.8624 5.75866 18.8847 5.87951 18.8825C6.00035 18.8804 6.11952 18.8539 6.22992 18.8047C6.34032 18.7556 6.43968 18.6846 6.52208 18.5962L7.83608 17.3452C8.18108 17.0152 8.14658 16.4572 7.81508 16.1122ZM12.0001 17.9002C11.5246 17.9002 11.1001 18.2602 11.1001 18.7372V21.2422C11.1001 21.4809 11.1949 21.7098 11.3637 21.8786C11.5325 22.0474 11.7614 22.1422 12.0001 22.1422C12.2388 22.1422 12.4677 22.0474 12.6365 21.8786C12.8053 21.7098 12.9001 21.4809 12.9001 21.2422V18.7372C12.9001 18.2617 12.4756 17.9002 12.0001 17.9002ZM16.0051 16.1587C15.6706 16.4812 15.6091 17.0197 15.9211 17.3647L17.2501 18.8242C17.4207 18.9832 17.6463 19.0697 17.8795 19.0656C18.1127 19.0615 18.3351 18.9671 18.5 18.8022C18.6649 18.6373 18.7594 18.4148 18.7635 18.1816C18.7676 17.9485 18.6811 17.7228 18.5221 17.5522L17.2531 16.1542C16.9261 15.7957 16.3546 15.8242 16.0051 16.1587ZM18.0121 12.0742C18.0121 12.5497 18.3721 12.9742 18.8476 12.9742H21.4231C21.6618 12.9742 21.8907 12.8794 22.0595 12.7106C22.2283 12.5418 22.3231 12.3129 22.3231 12.0742C22.3231 11.8355 22.2283 11.6066 22.0595 11.4378C21.8907 11.269 21.6618 11.1742 21.4231 11.1742H18.8476C18.3721 11.1742 18.0121 11.5987 18.0121 12.0742ZM15.9241 8.15021C16.2601 8.48621 16.8151 8.53121 17.1511 8.19521L18.7501 6.59921C18.919 6.43033 19.0138 6.20128 19.0138 5.96246C19.0138 5.72363 18.919 5.49458 18.7501 5.32571C18.5812 5.15683 18.3522 5.06196 18.1133 5.06196C17.8745 5.06196 17.6455 5.15683 17.4766 5.32571L15.8791 6.92471C15.5431 7.26071 15.5881 7.81571 15.9241 8.15171V8.15021Z" fill="#7E73FF"/>
<path fill-rule="evenodd" clip-rule="evenodd" d="M12.0747 9.45824C11.3809 9.45824 10.7155 9.73385 10.2249 10.2244C9.73427 10.715 9.45866 11.3804 9.45866 12.0742C9.45866 12.768 9.73427 13.4334 10.2249 13.924C10.7155 14.4146 11.3809 14.6902 12.0747 14.6902C12.7685 14.6902 13.4339 14.4146 13.9244 13.924C14.415 13.4334 14.6907 12.768 14.6907 12.0742C14.6907 11.3804 14.415 10.715 13.9244 10.2244C13.4339 9.73385 12.7685 9.45824 12.0747 9.45824ZM7.66016 12.0742C7.66016 10.9026 8.12557 9.77904 8.95401 8.95059C9.78245 8.12215 10.9061 7.65674 12.0777 7.65674C13.2493 7.65674 14.3729 8.12215 15.2013 8.95059C16.0297 9.77904 16.4952 10.9026 16.4952 12.0742C16.4952 13.2458 16.0297 14.3694 15.2013 15.1979C14.3729 16.0263 13.2493 16.4917 12.0777 16.4917C10.9061 16.4917 9.78245 16.0263 8.95401 15.1979C8.12557 14.3694 7.66016 13.2458 7.66016 12.0742Z" fill="#7E73FF"/>
</svg>
