<svg width="28" height="28" viewBox="0 0 28 28" fill="none" xmlns="http://www.w3.org/2000/svg">
<g clip-path="url(#clip0_61_74)">
<path d="M19.9108 0.0419922C17.374 2.49619 14.8652 4.92799 14.8652 4.92799L15.7668 6.76199C16.989 5.55239 18.2168 4.48699 19.3886 3.30119C21.8554 8.71779 23.5368 13.083 25.6046 18.8538C26.2808 20.7284 26.1422 20.8124 24.5252 21.8246C21.9254 23.1168 21.1022 23.9666 18.004 27.2622H20.125C22.715 24.92 23.6754 24.094 26.9192 22.3846C28.0672 21.7224 28.224 20.8866 27.7536 19.5846C26.236 15.3678 22.946 6.27759 19.9108 0.0419922Z" fill="#6A66CA"/>
<path d="M13.2971 0.0996094C11.4407 1.35261 10.0085 3.15581 8.39429 4.70141L9.05649 6.81261C10.3207 5.81861 11.4197 4.61601 12.5565 3.48061L18.6829 18.8484C19.0357 19.8886 18.4799 20.8154 17.3613 21.8234C16.0229 22.9 13.2663 25.4074 12.0161 27.3198H13.9173C15.9137 25.2702 16.2735 24.9916 18.5457 23.0246C20.0717 21.4678 21.4493 20.6712 20.7297 18.6762L13.2971 0.0996094Z" fill="black"/>
<path d="M7.03218 0C6.53798 0.168 6.12638 0.4858 5.73998 0.8232C3.91975 2.56762 2.10487 4.31763 0.295382 6.0732C0.0209821 6.328 -0.00281789 6.7032 0.00138211 7.0784L0.0237821 9.198C0.0237821 9.198 2.44018 6.8488 6.04798 3.374C7.99398 8.435 10.0198 13.468 12.0162 18.5122C12.2892 19.2738 11.6354 19.8982 10.8066 20.7312C9.66138 21.8484 7.26458 24.1472 4.81318 27.2202H7.27158L13.1796 20.7396C13.7424 19.9668 14.4396 19.2122 14.1456 18.5122L7.03358 0H7.03218Z" fill="#6A66CA"/>
</g>
<defs>
<clipPath id="clip0_61_74">
<rect width="28" height="28" fill="white"/>
</clipPath>
</defs>
</svg>
